<svg width="50" height="50" viewBox="0 0 50 50" fill="none" xmlns="http://www.w3.org/2000/svg">
<path d="M45.8332 14.5417V33.3333C45.8332 35.625 43.9582 37.5 41.6665 37.5H12.4998L4.1665 45.8333V8.33333C4.1665 6.04167 6.0415 4.16667 8.33317 4.16667H29.3748C29.2498 4.83333 29.1665 5.54167 29.1665 6.25C29.1665 6.95833 29.2498 7.66667 29.3748 8.33333H8.33317V33.3333H41.6665V16.4583C43.2082 16.1458 44.6248 15.4583 45.8332 14.5417ZM33.3332 6.25C33.3332 9.70833 36.1248 12.5 39.5832 12.5C43.0415 12.5 45.8332 9.70833 45.8332 6.25C45.8332 2.79167 43.0415 0 39.5832 0C36.1248 0 33.3332 2.79167 33.3332 6.25Z" fill="#233B6E"/>
</svg>
