<svg width="51" height="50" viewBox="0 0 51 50" fill="none" xmlns="http://www.w3.org/2000/svg">
<path d="M27 6C22.0272 6 17.2581 7.97544 13.7417 11.4917C10.2254 15.0081 8.25 19.7772 8.25 24.75H2L10.1042 32.8542L10.25 33.1458L18.6667 24.75H12.4167C12.4167 16.6875 18.9375 10.1667 27 10.1667C35.0625 10.1667 41.5833 16.6875 41.5833 24.75C41.5833 32.8125 35.0625 39.3333 27 39.3333C22.9792 39.3333 19.3333 37.6875 16.7083 35.0417L13.75 38C15.486 39.7462 17.5507 41.1313 19.8249 42.0753C22.099 43.0193 24.5377 43.5035 27 43.5C31.9728 43.5 36.7419 41.5246 40.2582 38.0083C43.7746 34.4919 45.75 29.7228 45.75 24.75C45.75 19.7772 43.7746 15.0081 40.2582 11.4917C36.7419 7.97544 31.9728 6 27 6ZM24.9167 16.4167V26.8333L33.7708 32.0833L35.375 29.4167L28.0417 25.0625V16.4167H24.9167Z" fill="#233B6E"/>
</svg>
