<svg width="50" height="50" viewBox="0 0 50 50" fill="none" xmlns="http://www.w3.org/2000/svg">
<path d="M43.7502 6.25H6.25016C3.9585 6.25 2.0835 8.125 2.0835 10.4167V35.4167C2.0835 37.7083 3.9585 39.5833 6.25016 39.5833H16.6668V43.75H33.3335V39.5833H43.7502C46.0418 39.5833 47.896 37.7083 47.896 35.4167L47.9168 10.4167C47.9168 8.125 46.0418 6.25 43.7502 6.25ZM43.7502 35.4167H6.25016V10.4167H43.7502V35.4167ZM39.5835 16.6667H16.6668V20.8333H39.5835V16.6667ZM39.5835 25H16.6668V29.1667H39.5835V25ZM14.5835 16.6667H10.4168V20.8333H14.5835V16.6667ZM14.5835 25H10.4168V29.1667H14.5835V25Z" fill="#233B6E"/>
</svg>
