<svg width="50" height="50" viewBox="0 0 50 50" fill="none" xmlns="http://www.w3.org/2000/svg">
<path d="M31.25 8.33317L25 12.4998L18.75 8.33317M31.25 8.33317C32.4729 9.39359 35.2708 11.0269 35.4083 12.804C35.4708 13.5728 35.15 13.9936 34.5042 14.8353C33.1 16.6707 31.25 17.7498 31.25 20.8332H18.75C18.75 17.7519 16.9 16.6707 15.4958 14.8353C14.8521 13.9936 14.5292 13.5748 14.5896 12.804C14.7292 11.0269 17.5292 9.39567 18.75 8.33317M31.25 8.33317V4.1665M18.75 8.33317V4.1665M19.7917 20.8332H30.2083M37.5 39.5832C41.6667 39.5832 43.75 35.0561 43.75 35.0561C37.8646 31.2311 34.375 26.7373 32.4729 23.3436C31.75 22.0519 31.3875 21.4061 30.9 21.1186C30.4125 20.8332 29.7604 20.8332 28.4562 20.8332H21.5417C20.2375 20.8332 19.5854 20.8332 19.0979 21.1186C18.6104 21.404 18.2479 22.0498 17.525 23.3436C15.625 26.7373 12.1354 31.229 6.25 35.0561C6.25 35.0561 8.33333 39.5832 12.5 39.5832" stroke="#233B6E" stroke-width="3" stroke-linecap="round" stroke-linejoin="round"/>
<path d="M28.5543 29.1665C29.2627 30.8248 32.3356 34.7311 35.7106 38.1457C36.9543 39.4061 37.5773 40.0353 37.4918 41.104C37.4085 42.1707 36.8877 42.5269 35.846 43.2394C33.4793 44.854 29.8668 45.8332 25.0002 45.8332C20.1335 45.8332 16.521 44.8561 14.1523 43.2394C13.1106 42.5269 12.5897 42.1707 12.5064 41.104C12.4231 40.0353 13.046 39.4061 14.2898 38.1457C17.6648 34.7311 20.7397 30.8248 21.446 29.1665" stroke="#233B6E" stroke-width="3" stroke-linecap="round" stroke-linejoin="round"/>
</svg>
