<svg width="46" height="46" viewBox="0 0 46 46" fill="none" xmlns="http://www.w3.org/2000/svg">
<path d="M35.9234 37.0625C34.3671 39.3875 32.7171 41.6562 30.2046 41.6937C27.6921 41.75 26.8859 40.2125 24.0359 40.2125C21.1671 40.2125 20.2859 41.6562 17.9046 41.75C15.4484 41.8437 13.5921 39.275 12.0171 37.0062C8.81087 32.375 6.35462 23.8438 9.65462 18.1062C11.2859 15.2563 14.2109 13.4562 17.3796 13.4C19.7796 13.3625 22.0671 15.0312 23.5484 15.0312C25.0109 15.0312 27.7859 13.025 30.6921 13.325C31.9109 13.3812 35.3234 13.8125 37.5171 17.0375C37.3484 17.15 33.4484 19.4375 33.4859 24.1812C33.5421 29.8437 38.4546 31.7375 38.5109 31.7562C38.4546 31.8875 37.7234 34.4562 35.9234 37.0625ZM25.2171 7.0625C26.5859 5.50625 28.8546 4.325 30.7296 4.25C30.9734 6.44375 30.0921 8.65625 28.7796 10.2312C27.4859 11.825 25.3484 13.0625 23.2484 12.8937C22.9671 10.7375 24.0171 8.4875 25.2171 7.0625Z" fill="white"/>
</svg>
