<svg width="310" height="73" viewBox="0 0 310 73" fill="none" xmlns="http://www.w3.org/2000/svg">
<path d="M47.1223 54.2163V72.7219H0.197266V9.80029H20.4582V54.2163H47.1279H47.1223Z" fill="#194185"/>
<path d="M102.689 48.2962C102.689 62.5436 92.0411 72.7221 77.4085 72.7221C62.7759 72.7221 52.1279 62.5436 52.1279 48.2962C52.1279 34.0488 62.7759 23.6812 77.4085 23.6812C92.0411 23.6812 102.689 34.1375 102.689 48.2962ZM85.8925 48.2962C85.8925 43.1154 82.3451 39.2297 77.4085 39.2297C72.4719 39.2297 68.8359 43.1154 68.8359 48.2962C68.8359 53.4771 72.4719 57.2741 77.4085 57.2741C82.3451 57.2741 85.8925 53.5717 85.8925 48.2962Z" fill="#194185"/>
<path d="M158.25 48.2962C158.25 62.5436 147.602 72.7221 132.97 72.7221C118.337 72.7221 107.689 62.5436 107.689 48.2962C107.689 34.0488 118.337 23.6812 132.97 23.6812C147.602 23.6812 158.25 34.1375 158.25 48.2962ZM141.454 48.2962C141.454 43.1154 137.906 39.2297 132.97 39.2297C128.033 39.2297 124.397 43.1154 124.397 48.2962C124.397 53.4771 128.033 57.2741 132.97 57.2741C137.906 57.2741 141.454 53.5717 141.454 48.2962Z" fill="#194185"/>
<path d="M235.727 43.8544V72.7218H216.246V49.4079C216.246 44.6883 214.254 43.671 212.261 43.671C210.961 43.671 210.098 44.1324 209.229 44.9663V72.7218H189.748V49.4079C189.748 44.6883 187.756 43.671 185.763 43.671C184.463 43.671 183.6 44.1324 182.731 44.9663V72.7218H163.25V26.4606H182.731V28.8677C186.107 26.1826 189.311 25.0767 193.467 25.0767C198.664 25.0767 202.82 26.9278 205.587 30.5355C209.915 26.6499 214.42 25.0767 219.528 25.0767C229.916 25.0767 235.721 31.4581 235.721 43.8603L235.727 43.8544Z" fill="#194185"/>
<path d="M240.727 11.3794C240.727 4.99789 245.575 0.27832 251.552 0.27832C257.529 0.27832 262.377 4.99789 262.377 11.3794C262.377 17.7608 257.441 22.4804 251.552 22.4804C245.664 22.4804 240.727 17.7608 240.727 11.3794ZM261.331 26.4607V72.7219H241.851V26.4607H261.331Z" fill="#194185"/>
<path d="M309.803 37.1948L294.13 55.6058H309.803V72.7217H267.377V61.9873L283.57 43.5763H267.377V26.4604H309.803V37.1948Z" fill="#194185"/>
</svg>
