<svg width="31" height="25" viewBox="0 0 31 25" fill="none" xmlns="http://www.w3.org/2000/svg">
<path d="M20.8947 6.80496C19.9355 4.27931 17.8734 2.67969 14.7585 2.67969C10.7952 2.67969 8.02222 5.59944 7.78391 9.40873C5.87308 10.0151 4.49365 11.949 4.49365 14.1396C4.49365 16.8212 6.61837 19.0865 9.13273 19.0865H11.1199C11.4996 19.0865 11.8077 18.7808 11.8077 18.4041C11.8077 18.0271 11.4996 17.7217 11.1199 17.7217H9.13273C7.36362 17.7217 5.84763 16.0815 5.84763 14.1396C5.84763 12.4237 7.06028 10.8756 8.58143 10.6163L9.20564 10.5095L9.15027 9.88404L9.14511 9.87619C9.14511 6.5521 11.35 4.04488 14.7585 4.04488C17.4906 4.04488 19.0255 5.38038 19.7354 7.65831L19.8825 8.12816L20.3781 8.13874C22.9334 8.19197 25.1737 10.2488 25.1737 12.8042C25.1737 15.1298 23.6202 17.7217 21.2682 17.7217H19.6965C19.3168 17.7217 19.0086 18.0274 19.0086 18.4041C19.0086 18.7812 19.3168 19.0865 19.6965 19.0865L21.263 19.0845C24.7022 18.9944 26.4937 15.7349 26.4937 12.8042C26.4937 9.65412 24.0054 7.137 20.8947 6.805L20.8947 6.80496ZM16.0145 12.2424C16.0107 12.2384 16.0093 12.2349 16.0069 12.2315L15.8329 12.051C15.7376 11.9511 15.6107 11.9016 15.4838 11.9023C15.3569 11.9012 15.2307 11.9511 15.1337 12.051L14.9597 12.2315C14.9562 12.2349 14.9555 12.239 14.9525 12.2424L12.4697 14.9667C12.2775 15.166 12.2775 15.4884 12.4697 15.6883L12.6431 15.805C12.8353 16.0043 13.1469 15.9398 13.3388 15.7405L14.8029 14.1212V20.9973C14.8029 21.374 15.111 21.6797 15.4907 21.6797C15.8704 21.6797 16.1786 21.374 16.1786 20.9973V14.1276L17.6911 15.7832C17.8833 15.9824 18.1942 16.0469 18.3862 15.8477L18.5595 15.731C18.7518 15.531 18.7518 15.2086 18.5595 15.0093L16.0145 12.2424Z" fill="#979797"/>
</svg>
