<svg width="38" height="30" viewBox="0 0 38 30" fill="none" xmlns="http://www.w3.org/2000/svg">
<path fill-rule="evenodd" clip-rule="evenodd" d="M11.4281 10C11.1456 10.0001 10.8695 10.0839 10.6346 10.2409C10.3997 10.3978 10.2166 10.6209 10.1085 10.8819C10.0004 11.143 9.97214 11.4302 10.0272 11.7072C10.0823 11.9843 10.2184 12.2389 10.4181 12.4386L17.5612 19.5817C17.8291 19.8495 18.1924 20 18.5712 20C18.95 20 19.3133 19.8495 19.5812 19.5817L26.7243 12.4386C26.924 12.2389 27.06 11.9843 27.1151 11.7072C27.1702 11.4302 27.142 11.143 27.0338 10.8819C26.9257 10.6209 26.7427 10.3978 26.5078 10.2409C26.2729 10.0839 25.9968 10.0001 25.7143 10H11.4281Z" fill="#194185"/>
</svg>
