<svg width="81" height="80" viewBox="0 0 81 80" fill="none" xmlns="http://www.w3.org/2000/svg">
<path d="M23.833 23.333H20.4997C18.7316 23.333 17.0359 24.0354 15.7856 25.2856C14.5354 26.5359 13.833 28.2316 13.833 29.9997V59.9997C13.833 61.7678 14.5354 63.4635 15.7856 64.7137C17.0359 65.964 18.7316 66.6663 20.4997 66.6663H50.4997C52.2678 66.6663 53.9635 65.964 55.2137 64.7137C56.464 63.4635 57.1663 61.7678 57.1663 59.9997V56.6663" stroke="#233B6E" stroke-width="5" stroke-linecap="round" stroke-linejoin="round"/>
<path d="M53.8333 16.6665L63.8333 26.6665M68.45 21.9499C69.7628 20.637 70.5004 18.8565 70.5004 16.9999C70.5004 15.1433 69.7628 13.3627 68.45 12.0499C67.1372 10.737 65.3566 9.99951 63.5 9.99951C61.6434 9.99951 59.8628 10.737 58.55 12.0499L30.5 39.9999V49.9999H40.5L68.45 21.9499Z" stroke="#233B6E" stroke-width="5" stroke-linecap="round" stroke-linejoin="round"/>
</svg>
