<svg width="35" height="35" viewBox="0 0 35 35" fill="none" xmlns="http://www.w3.org/2000/svg">
<path d="M5.46875 14.4922V30.625C5.46875 30.9151 5.58398 31.1933 5.7891 31.3984C5.99422 31.6035 6.27242 31.7188 6.5625 31.7188H13.125V22.4219C13.125 21.9868 13.2979 21.5695 13.6055 21.2618C13.9132 20.9541 14.3305 20.7812 14.7656 20.7812H20.2344C20.6695 20.7812 21.0868 20.9541 21.3945 21.2618C21.7021 21.5695 21.875 21.9868 21.875 22.4219V31.7188H28.4375C28.7276 31.7188 29.0058 31.6035 29.2109 31.3984C29.416 31.1933 29.5312 30.9151 29.5312 30.625V14.4922" stroke="black" stroke-width="3" stroke-linecap="round" stroke-linejoin="round"/>
<path d="M32.8125 17.4998L18.2444 3.55447C17.9026 3.19353 17.1035 3.18943 16.7556 3.55447L2.1875 17.4998" stroke="black" stroke-width="3" stroke-linecap="round" stroke-linejoin="round"/>
</svg>
