<svg width="30" height="30" viewBox="0 0 30 30" fill="none" xmlns="http://www.w3.org/2000/svg">
<path d="M16.542 0C18.2294 0.00449989 19.0859 0.0134997 19.8254 0.0344992L20.1163 0.0449989C20.4523 0.0569986 20.7838 0.0719982 21.1843 0.0899977C22.7802 0.164996 23.8691 0.41699 24.8246 0.787481C25.8146 1.16847 26.6485 1.68446 27.4825 2.51694C28.2455 3.26652 28.8357 4.17361 29.2119 5.17487C29.5824 6.13035 29.8343 7.21932 29.9093 8.81679C29.9273 9.21578 29.9423 9.54727 29.9543 9.88476L29.9633 10.1758C29.9858 10.9137 29.9948 11.7702 29.9978 13.4577L29.9993 14.5766V16.5416C30.003 17.6357 29.9915 18.7298 29.9648 19.8235L29.9558 20.1145C29.9438 20.452 29.9288 20.7835 29.9108 21.1825C29.8358 22.7799 29.5809 23.8674 29.2119 24.8244C28.8357 25.8257 28.2455 26.7328 27.4825 27.4823C26.7329 28.2454 25.8258 28.8356 24.8246 29.2118C23.8691 29.5823 22.7802 29.8343 21.1843 29.9093L20.1163 29.9543L19.8254 29.9633C19.0859 29.9843 18.2294 29.9948 16.542 29.9978L15.4231 29.9993H13.4597C12.3651 30.0031 11.2706 29.9916 10.1763 29.9648L9.88536 29.9558C9.52929 29.9423 9.1733 29.9268 8.81741 29.9093C7.22149 29.8343 6.13254 29.5823 5.17559 29.2118C4.17489 28.8354 3.26835 28.2452 2.51923 27.4823C1.75568 26.7329 1.16496 25.8258 0.788314 24.8244C0.417832 23.8689 0.165845 22.7799 0.0908485 21.1825L0.0458508 20.1145L0.0383514 19.8235C0.0107019 18.7298 -0.00179885 17.6357 0.000853152 16.5416V13.4577C-0.00329848 12.3636 0.00770213 11.2695 0.0338516 10.1758L0.044351 9.88476C0.0563504 9.54727 0.0713496 9.21578 0.0893487 8.81679C0.164345 7.21932 0.416332 6.13185 0.786813 5.17487C1.16434 4.1732 1.7561 3.26608 2.52073 2.51694C3.26942 1.75428 4.17542 1.16408 5.17559 0.787481C6.13254 0.41699 7.21999 0.164996 8.81741 0.0899977C9.21639 0.0719982 9.54937 0.0569986 9.88536 0.0449989L10.1763 0.035999C11.2701 0.00934883 12.3641 -0.00215199 13.4582 0.00149985L16.542 0ZM15.0001 7.49982C13.0111 7.49982 11.1035 8.28997 9.69706 9.69646C8.29061 11.103 7.50048 13.0106 7.50048 14.9996C7.50048 16.9887 8.29061 18.8963 9.69706 20.3028C11.1035 21.7093 13.0111 22.4995 15.0001 22.4995C16.9891 22.4995 18.8967 21.7093 20.3031 20.3028C21.7096 18.8963 22.4997 16.9887 22.4997 14.9996C22.4997 13.0106 21.7096 11.103 20.3031 9.69646C18.8967 8.28997 16.9891 7.49982 15.0001 7.49982ZM15.0001 10.4997C15.591 10.4996 16.1762 10.6159 16.7221 10.842C17.2681 11.068 17.7642 11.3994 18.1821 11.8172C18.6 12.235 18.9316 12.731 19.1578 13.2769C19.384 13.8228 19.5005 14.408 19.5006 14.9989C19.5007 15.5898 19.3844 16.175 19.1584 16.721C18.9323 17.267 18.601 17.7631 18.1832 18.181C17.7654 18.5989 17.2694 18.9305 16.7235 19.1567C16.1776 19.3829 15.5925 19.4994 15.0016 19.4995C13.8082 19.4995 12.6636 19.0254 11.8198 18.1815C10.9759 17.3376 10.5018 16.1931 10.5018 14.9996C10.5018 13.8062 10.9759 12.6616 11.8198 11.8177C12.6636 10.9738 13.8082 10.4997 15.0016 10.4997M22.8762 5.24987C22.3789 5.24987 21.9021 5.44741 21.5504 5.79903C21.1988 6.15066 21.0013 6.62756 21.0013 7.12483C21.0013 7.6221 21.1988 8.099 21.5504 8.45062C21.9021 8.80224 22.3789 8.99978 22.8762 8.99978C23.3735 8.99978 23.8503 8.80224 24.202 8.45062C24.5536 8.099 24.7511 7.6221 24.7511 7.12483C24.7511 6.62756 24.5536 6.15066 24.202 5.79903C23.8503 5.44741 23.3735 5.24987 22.8762 5.24987Z" fill="#EDF5FF"/>
</svg>
