<svg width="185" height="40" viewBox="0 0 185 40" fill="none" xmlns="http://www.w3.org/2000/svg">
<path d="M68.6802 27.5067V35.2174H47.8809V9H56.8614V27.5067H68.6827H68.6802Z" fill="#194185"/>
<path d="M93.411 25.2563C93.411 31.1927 88.6913 35.4337 82.2055 35.4337C75.7197 35.4337 71 31.1927 71 25.2563C71 19.3199 75.7197 15 82.2055 15C88.6913 15 93.411 19.3568 93.411 25.2563ZM85.966 25.2563C85.966 23.0976 84.3936 21.4786 82.2055 21.4786C80.0174 21.4786 78.4057 23.0976 78.4057 25.2563C78.4057 27.415 80.0174 28.997 82.2055 28.997C84.3936 28.997 85.966 27.4544 85.966 25.2563Z" fill="#194185"/>
<path d="M117.411 25.2563C117.411 31.1927 112.691 35.4337 106.205 35.4337C99.7197 35.4337 95 31.1927 95 25.2563C95 19.3199 99.7197 15 106.205 15C112.691 15 117.411 19.3568 117.411 25.2563ZM109.966 25.2563C109.966 23.0976 108.394 21.4786 106.205 21.4786C104.017 21.4786 102.406 23.0976 102.406 25.2563C102.406 27.415 104.017 28.997 106.205 28.997C108.394 28.997 109.966 27.4544 109.966 25.2563Z" fill="#194185"/>
<path d="M151.125 22.8241V34.8521H142.49V25.138C142.49 23.1715 141.607 22.7477 140.724 22.7477C140.148 22.7477 139.765 22.9399 139.38 23.2873V34.8521H130.745V25.138C130.745 23.1715 129.862 22.7477 128.979 22.7477C128.402 22.7477 128.02 22.9399 127.635 23.2873V34.8521H119V15.5766H127.635V16.5796C129.131 15.4608 130.551 15 132.394 15C134.697 15 136.539 15.7713 137.766 17.2745C139.684 15.6555 141.681 15 143.945 15C148.549 15 151.123 17.6589 151.123 22.8265L151.125 22.8241Z" fill="#194185"/>
<path d="M153 9.62543C153 6.96649 155.149 5 157.798 5C160.447 5 162.596 6.96649 162.596 9.62543C162.596 12.2844 160.408 14.2509 157.798 14.2509C155.188 14.2509 153 12.2844 153 9.62543ZM162.133 15.9093V35.1848H153.498V15.9093H162.133Z" fill="#194185"/>
<path d="M183.805 20.4726L176.858 28.1439H183.805V35.2755H165V30.8029L172.178 23.1316H165V16H183.805V20.4726Z" fill="#194185"/>
</svg>
