<svg width="81" height="80" viewBox="0 0 81 80" fill="none" xmlns="http://www.w3.org/2000/svg">
<g clip-path="url(#clip0_705_4206)">
<path d="M76.0559 52.5113L71.6114 51.1113C71.2971 50.0231 70.865 48.9724 70.3225 47.978L72.5447 43.8446C72.6286 43.6869 72.6587 43.5061 72.6306 43.3297C72.6026 43.1533 72.5178 42.9908 72.3892 42.8669L69.167 39.6891C69.043 39.5605 68.8805 39.4757 68.7041 39.4476C68.5277 39.4196 68.3469 39.4497 68.1892 39.5335L64.0781 41.7558C63.0724 41.1873 62.0066 40.7327 60.9003 40.4002L59.5447 35.9558C59.488 35.79 59.3798 35.6467 59.2359 35.5468C59.092 35.4468 58.9199 35.3955 58.7447 35.4002H54.3003C54.1262 35.4017 53.9571 35.4585 53.8173 35.5624C53.6775 35.6662 53.5743 35.8117 53.5225 35.978L52.167 40.4224C51.053 40.7533 49.9797 41.208 48.967 41.778L44.9447 39.5558C44.787 39.4719 44.6062 39.4418 44.4298 39.4699C44.2534 39.4979 44.0909 39.5827 43.967 39.7113L40.5003 42.9113C40.3717 43.0353 40.2869 43.1977 40.2589 43.3742C40.2308 43.5506 40.2609 43.7313 40.3447 43.8891L42.567 47.9335C42.0215 48.9421 41.5893 50.0078 41.2781 51.1113L36.8336 52.4669C36.6674 52.5186 36.5218 52.6218 36.418 52.7616C36.3142 52.9014 36.2574 53.0705 36.2559 53.2446V57.6891C36.2574 57.8632 36.3142 58.0323 36.418 58.1721C36.5218 58.3119 36.6674 58.4151 36.8336 58.4669L41.2781 59.8224C41.6357 60.9478 42.1203 62.0289 42.7225 63.0446L40.5003 67.2669C40.4165 67.4246 40.3863 67.6054 40.4144 67.7818C40.4425 67.9582 40.5272 68.1207 40.6559 68.2446L43.8781 71.4669C44.002 71.5955 44.1645 71.6802 44.3409 71.7083C44.5173 71.7364 44.6981 71.7062 44.8559 71.6224L49.0114 69.4002C49.9926 69.932 51.0282 70.3567 52.1003 70.6669L53.4559 75.1113C53.5076 75.2776 53.6108 75.4231 53.7506 75.5269C53.8904 75.6308 54.0595 75.6875 54.2336 75.6891H58.6781C58.8522 75.6875 59.0213 75.6308 59.1611 75.5269C59.3009 75.4231 59.4041 75.2776 59.4559 75.1113L60.8114 70.6669C61.8759 70.3552 62.9039 69.9305 63.8781 69.4002L68.0781 71.6224C68.2358 71.7062 68.4166 71.7364 68.593 71.7083C68.7694 71.6802 68.9319 71.5955 69.0559 71.4669L72.2781 68.2446C72.4067 68.1207 72.4915 67.9582 72.5195 67.7818C72.5476 67.6054 72.5174 67.4246 72.4336 67.2669L70.2114 63.0891C70.7509 62.1088 71.183 61.0732 71.5003 60.0002L75.9448 58.6446C76.111 58.5929 76.2565 58.4897 76.3604 58.3499C76.4642 58.2101 76.521 58.041 76.5225 57.8669V53.3335C76.5388 53.1651 76.5027 52.9958 76.4192 52.8486C76.3357 52.7015 76.2088 52.5837 76.0559 52.5113ZM56.4336 63.0002C54.9749 62.987 53.5525 62.543 52.3454 61.7239C51.1382 60.9047 50.2001 59.7471 49.6489 58.3964C49.0978 57.0457 48.9581 55.5622 49.2475 54.1323C49.537 52.7025 50.2426 51.3901 51.2757 50.3601C52.3087 49.3301 53.6232 48.6284 55.0539 48.3433C56.4846 48.0581 57.9677 48.2022 59.3167 48.7574C60.6658 49.3126 61.8206 50.2541 62.6362 51.4637C63.4517 52.6733 63.8915 54.0969 63.9003 55.5558C63.9032 56.5313 63.7133 57.4978 63.3413 58.3996C62.9693 59.3014 62.4227 60.1208 61.7329 60.8106C61.0431 61.5004 60.2237 62.047 59.3219 62.419C58.4201 62.7909 57.4536 62.9809 56.4781 62.978L56.4336 63.0002Z" fill="#233B6E"/>
<path d="M24.6106 60.9777C25.5393 60.7783 26.3937 60.323 27.077 59.6632C27.7604 59.0034 28.2454 58.1656 28.4773 57.2444C29.8985 56.8697 31.3002 56.4247 32.6773 55.9111V53.2222C32.6866 52.8074 32.7539 52.396 32.8773 52C31.311 52.6862 29.6999 53.2653 28.0551 53.7333C27.5755 52.7841 26.8094 52.0098 25.8654 51.5202C24.9213 51.0306 23.8471 50.8505 22.7949 51.0054C21.7428 51.1602 20.7661 51.6423 20.0031 52.3831C19.2402 53.124 18.7297 54.0862 18.544 55.1333H17.544C13.6562 50.6201 11.4017 44.929 11.144 38.9777C14.1308 34.7925 17.9049 31.2298 22.2551 28.4888C22.9023 29.151 23.7222 29.6186 24.6216 29.8385C25.5211 30.0585 26.4642 30.022 27.344 29.7333C30.0492 34.1178 33.5545 37.9548 37.6773 41.0444C37.8238 40.7911 37.995 40.5529 38.1884 40.3333L40.1662 38.4C36.1545 35.473 32.7632 31.7796 30.1884 27.5333C30.6921 26.7347 30.9616 25.8108 30.9662 24.8666V24.3777C39.1122 21.6607 47.9236 21.6841 56.0551 24.4444C55.4572 27.0059 54.6009 29.5002 53.4995 31.8889C53.7259 31.8338 53.9562 31.7967 54.1884 31.7777H57.4106C58.2264 29.8306 58.8949 27.8249 59.4106 25.7777C60.3662 26.2 61.2773 26.6889 62.2106 27.2C63.6334 30.446 64.3891 33.945 64.4329 37.4889L66.6551 36.3555C67.2857 36.0237 67.9869 35.8484 68.6995 35.8444H68.8773C68.5002 29.8196 66.3785 24.0346 62.7708 19.1947C59.163 14.3547 54.2252 10.6689 48.5591 8.58647C42.8931 6.50407 36.7435 6.11505 30.8602 7.46682C24.9769 8.8186 19.6139 11.8528 15.4251 16.1995C11.2362 20.5462 8.40237 26.0177 7.26904 31.947C6.13571 37.8763 6.75184 44.0072 9.04232 49.5924C11.3328 55.1776 15.1987 59.9758 20.1687 63.4021C25.1387 66.8284 30.9982 68.7348 37.0329 68.8889C36.6943 67.8141 36.79 66.6495 37.2995 65.6444L37.9217 64.4666H37.7662C33.1517 64.4714 28.6163 63.2686 24.6106 60.9777ZM37.744 11.1111C41.3153 11.1165 44.8492 11.8392 48.1359 13.2363C51.4226 14.6335 54.3952 16.6766 56.8773 19.2444C56.8773 19.8 56.8773 20.3777 56.6995 20.9333C47.7741 17.99 38.1266 18.0759 29.2551 21.1777C28.4994 20.5346 27.5728 20.1254 26.5884 20C25.9936 18.1633 25.5404 16.2837 25.2328 14.3777C29.0686 12.2703 33.3675 11.1479 37.744 11.1111ZM21.9662 16.3555C22.2547 17.7957 22.6181 19.2199 23.0551 20.6222C22.3281 21.0774 21.7286 21.7097 21.3127 22.4598C20.8968 23.2099 20.6782 24.0534 20.6773 24.9111C20.6773 24.9111 20.6773 25.1333 20.6773 25.2444C17.3204 27.3582 14.2697 29.9229 11.6106 32.8666C12.8555 26.2535 16.5547 20.3555 21.9662 16.3555Z" fill="#233B6E"/>
</g>
<defs>
<clipPath id="clip0_705_4206">
<rect width="80" height="80" fill="white" transform="translate(0.5)"/>
</clipPath>
</defs>
</svg>
