<svg width="23" height="23" viewBox="0 0 23 23" fill="none" xmlns="http://www.w3.org/2000/svg">
<path d="M6.33366 1.5C6.91699 1.5 9.25033 6.75 9.25033 7.33333C9.25033 8.5 7.50033 9.66667 6.91699 10.8333C6.33366 12 7.50033 13.1667 8.66699 14.3333C9.12199 14.7883 11.0003 16.6667 12.167 16.0833C13.3337 15.5 14.5003 13.75 15.667 13.75C16.2503 13.75 21.5003 16.0833 21.5003 16.6667C21.5003 19 19.7503 20.75 18.0003 21.3333C16.2503 21.9167 15.0837 21.9167 12.7503 21.3333C10.417 20.75 8.66699 20.1667 5.75033 17.25C2.83366 14.3333 2.25033 12.5833 1.66699 10.25C1.08366 7.91667 1.08366 6.75 1.66699 5C2.25033 3.25 4.00033 1.5 6.33366 1.5Z" stroke="#EDF5FF" stroke-width="2" stroke-linecap="round" stroke-linejoin="round"/>
</svg>
