<svg width="35" height="35" viewBox="0 0 35 35" fill="none" xmlns="http://www.w3.org/2000/svg">
<path d="M11.6668 4.375C12.396 4.375 15.3127 10.9375 15.3127 11.6667C15.3127 13.125 13.1252 14.5833 12.396 16.0417C11.6668 17.5 13.1252 18.9583 14.5835 20.4167C15.1522 20.9854 17.5002 23.3333 18.9585 22.6042C20.4168 21.875 21.8752 19.6875 23.3335 19.6875C24.0627 19.6875 30.6252 22.6042 30.6252 23.3333C30.6252 26.25 28.4377 28.4375 26.2502 29.1667C24.0627 29.8958 22.6043 29.8958 19.6877 29.1667C16.771 28.4375 14.5835 27.7083 10.9377 24.0625C7.29183 20.4167 6.56266 18.2292 5.8335 15.3125C5.10433 12.3958 5.10433 10.9375 5.8335 8.75C6.56266 6.5625 8.75016 4.375 11.6668 4.375Z" stroke="black" stroke-width="3" stroke-linecap="round" stroke-linejoin="round"/>
</svg>
