<svg width="46" height="46" viewBox="0 0 46 46" fill="none" xmlns="http://www.w3.org/2000/svg">
<path d="M5.06055 5.72839V40.2694C5.06078 40.3443 5.08313 40.4175 5.1248 40.4798C5.16647 40.5421 5.2256 40.5907 5.29477 40.6195C5.36395 40.6484 5.4401 40.6561 5.51366 40.6418C5.58723 40.6275 5.65494 40.5918 5.7083 40.5392L23.6934 22.9998L5.7083 5.45856C5.65494 5.40595 5.58723 5.37026 5.51366 5.35598C5.4401 5.34169 5.36395 5.34944 5.29477 5.37826C5.2256 5.40707 5.16647 5.45567 5.1248 5.51796C5.08313 5.58025 5.06078 5.65345 5.06055 5.72839ZM31.2344 15.7927L8.6834 3.36852L8.66934 3.36061C8.28086 3.14968 7.91172 3.67526 8.22988 3.98112L25.9073 20.8842L31.2344 15.7927ZM8.23164 42.0184C7.91172 42.3243 8.28086 42.8499 8.67109 42.6389L8.68516 42.631L31.2344 30.2068L25.9073 25.1135L8.23164 42.0184ZM40.3381 20.8025L34.0407 17.3343L28.1195 22.9998L34.0407 28.6626L40.3381 25.197C42.0511 24.2505 42.0511 21.7491 40.3381 20.8025Z" fill="white"/>
</svg>
