<svg width="80" height="80" viewBox="0 0 80 80" fill="none" xmlns="http://www.w3.org/2000/svg">
<path d="M23.1778 42.3644C20.95 38.4822 19.8737 35.3096 19.2251 32.0948C18.2662 27.3383 20.4612 22.6923 24.0967 19.7265C25.6336 18.474 27.3961 18.904 28.3056 20.5326L30.3572 24.2151C31.9834 27.1338 32.7965 28.5909 32.6367 30.1372C32.4745 31.6859 31.3771 32.9455 29.1845 35.4647L23.1778 42.3644ZM23.1778 42.3644C27.6875 50.2276 34.7635 57.3106 42.6361 61.8227M42.6361 61.8227C46.5207 64.0505 49.6909 65.1269 52.9058 65.7755C57.6622 66.7343 62.3082 64.5394 65.2716 60.9038C66.5266 59.3669 66.0965 57.6044 64.4679 56.6949L60.7854 54.6434C57.8667 53.0171 56.4097 52.204 54.8633 52.3638C53.3147 52.526 52.055 53.6234 49.5358 55.816L42.6361 61.8227ZM42.4998 30.7505H44.5138C45.4632 30.7505 45.9379 30.7505 46.234 31.0373C46.5278 31.324 46.5278 31.7869 46.5278 32.7081C46.5278 34.5553 46.5278 35.4788 45.9402 36.0522C45.489 36.4893 44.8334 36.5927 43.7077 36.6162C43.132 36.6303 42.8453 36.6374 42.6737 36.8089C42.5021 36.9805 42.4998 37.2531 42.4998 37.8007V40.5431C42.4998 41.4667 42.4998 41.9273 42.7959 42.214C43.0897 42.5007 43.5644 42.5007 44.5138 42.5007H46.5278M56.6 30.7505V36.6256M56.6 36.6256H53.176C52.4169 36.6256 52.0362 36.6256 51.8012 36.3953C51.5662 36.1674 51.5662 35.7984 51.5662 35.0582V30.7505M56.6 36.6256V42.5007" stroke="#233B6E" stroke-width="4" stroke-linecap="round" stroke-linejoin="round"/>
<path d="M37.7997 24.4167C38.0081 24.1817 38.225 23.9514 38.4506 23.7258C39.9784 22.2034 41.7958 21.0028 43.7955 20.1948C45.7952 19.3868 47.9366 18.9878 50.093 19.0215C52.2495 19.0551 54.3774 19.5207 56.3509 20.3907C58.3244 21.2607 60.1035 22.5174 61.583 24.0867C63.0626 25.6559 64.2125 27.5058 64.965 29.5271C65.7174 31.5483 66.0571 33.6998 65.9639 35.8546C65.8707 38.0093 65.3465 40.1235 64.4224 42.0722C63.4982 44.0209 62.1928 45.7646 60.5833 47.2003" stroke="#233B6E" stroke-width="4" stroke-linecap="round" stroke-linejoin="round"/>
</svg>
