<svg width="31" height="35" viewBox="0 0 31 35" fill="none" xmlns="http://www.w3.org/2000/svg">
<g clip-path="url(#clip0_647_1775)">
<path d="M4.375 2.1875C1.96191 2.1875 0 4.14941 0 6.5625V28.4375C0 30.8506 1.96191 32.8125 4.375 32.8125H26.25C28.6631 32.8125 30.625 30.8506 30.625 28.4375V6.5625C30.625 4.14941 28.6631 2.1875 26.25 2.1875H4.375ZM24.6846 7.92969L17.5889 16.0371L25.9355 27.0703H19.4004L14.2871 20.3779L8.42871 27.0703H5.18164L12.7695 18.3955L4.76465 7.92969H11.4639L16.0918 14.0479L21.4375 7.92969H24.6846ZM22.1006 25.1289L10.4863 9.76855H8.55176L20.2959 25.1289H22.0938H22.1006Z" fill="#EDF5FF"/>
</g>
<defs>
<clipPath id="clip0_647_1775">
<rect width="30.625" height="35" fill="white"/>
</clipPath>
</defs>
</svg>
