<svg width="185" height="40" viewBox="0 0 185 40" fill="none" xmlns="http://www.w3.org/2000/svg">
<g clip-path="url(#clip0_1145_2686)">
<path d="M16.688 0L0 28.2356L28.0186 33.4105L35.9837 20.7048L17.9906 18.1173L29.4242 0H16.688Z" fill="white"/>
<path d="M28.9553 7.05766L22.0132 18.6964L17.9902 18.1173L29.4239 0L28.9553 7.05766Z" fill="#979797"/>
<path d="M28.0186 33.4108L28.4061 40.0003L35.9836 27.1023V20.7051" fill="#979797"/>
<path d="M68.6802 27.0945V34.8052H47.8809V8.58789H56.8614V27.0945H68.6827H68.6802Z" fill="white"/>
<path d="M92.4354 25.2045C92.4354 31.1409 87.7158 35.382 81.2299 35.382C74.7441 35.382 70.0244 31.1409 70.0244 25.2045C70.0244 19.2681 74.7441 14.9482 81.2299 14.9482C87.7158 14.9482 92.4354 19.3051 92.4354 25.2045ZM84.9904 25.2045C84.9904 23.0458 83.418 21.4268 81.2299 21.4268C79.0418 21.4268 77.4301 23.0458 77.4301 25.2045C77.4301 27.3632 79.0418 28.9453 81.2299 28.9453C83.418 28.9453 84.9904 27.4027 84.9904 25.2045Z" fill="white"/>
<path d="M116.385 25.2045C116.385 31.1409 111.665 35.382 105.179 35.382C98.6933 35.382 93.9736 31.1409 93.9736 25.2045C93.9736 19.2681 98.6933 14.9482 105.179 14.9482C111.665 14.9482 116.385 19.3051 116.385 25.2045ZM108.94 25.2045C108.94 23.0458 107.367 21.4268 105.179 21.4268C102.991 21.4268 101.379 23.0458 101.379 25.2045C101.379 27.3632 102.991 28.9453 105.179 28.9453C107.367 28.9453 108.94 27.4027 108.94 25.2045Z" fill="white"/>
<path d="M150.617 22.7752V34.8033H141.982V25.0892C141.982 23.1227 141.099 22.6988 140.216 22.6988C139.639 22.6988 139.257 22.891 138.872 23.2385V34.8033H130.237V25.0892C130.237 23.1227 129.354 22.6988 128.471 22.6988C127.894 22.6988 127.512 22.891 127.126 23.2385V34.8033H118.492V15.5278H127.126V16.5308C128.623 15.412 130.043 14.9512 131.885 14.9512C134.189 14.9512 136.031 15.7225 137.257 17.2257C139.176 15.6067 141.173 14.9512 143.437 14.9512C148.041 14.9512 150.614 17.6101 150.614 22.7777L150.617 22.7752Z" fill="white"/>
<path d="M153.497 9.24359C153.497 6.58465 155.645 4.61816 158.295 4.61816C160.944 4.61816 163.093 6.58465 163.093 9.24359C163.093 11.9025 160.905 13.869 158.295 13.869C155.685 13.869 153.497 11.9025 153.497 9.24359ZM162.629 15.5275V34.803H153.995V15.5275H162.629Z" fill="white"/>
<path d="M184.39 20L177.443 27.6713H184.39V34.8028H165.585V30.3302L172.763 22.6589H165.585V15.5273H184.39V20Z" fill="white"/>
</g>
<defs>
<clipPath id="clip0_1145_2686">
<rect width="184.39" height="40" fill="white"/>
</clipPath>
</defs>
</svg>
